# xmcd
# 
# Track frame offsets:
#     150
#     24008
#     48915
#     65293
#     85820
#     107730
#     127048
#     144205
#     168223
#     190108
# 
# Disc length: 2831
# 
# Revision: 2
# Processed by: cddbd v1.5.2PL0 Copyright (c) Steve Scherf et al.
# Submitted via: fre:ac v1.0.31
# 
DISCID=740b0d0a
DTITLE=Various Artist - Tình Phai 2 - Ngọc Lan - Duy Quang - Dream Studio
DYEAR=1990
DGENRE=Pop
TTITLE0=Ngọc Lan - Hạnh Phúc Lang Thang - Trần Ngọc Sơn
TTITLE1=Duy Quang - Chiều Qua Công Viên - Ngô Thụy Miên
TTITLE2=Ngọc Lan - Duy Quang - Một Ngày Không Có Anh - Y Vân
TTITLE3=Duy Quang - Đêm Thấy Ta Là Thác Đổ - Trịnh Công Sơn
TTITLE4=Ngọc Lan - Đừng Buồn Nữa Em - Duyên An
TTITLE5=Ngọc Lan - Duy Quang - Bảy Ngày Đợi Mong - Trần Thiện Thanh
TTITLE6=Duy Quang - Đừng Hỏi Vì Sao Tôi Buồn - Bảo Thu
TTITLE7=Ngọc Lan - Được Chết Vì Yêu
TTITLE8=Ngọc Lan - Duy Quang - Thương Nhau Ngày Mưa - Nguyễn Trung Can
TTITLE9=Duy Quang - Chỉ Có Ta Trong Cuộc Đời - Trịnh Công Sơn
EXTD=
EXTT0=
EXTT1=
EXTT2=
EXTT3=
EXTT4=
EXTT5=
EXTT6=
EXTT7=
EXTT8=
EXTT9=
PLAYORDER=
